<mxfile host="app.diagrams.net" agent="Mozilla/5.0 (Macintosh; Intel Mac OS X 10_15_7) AppleWebKit/537.36 (KHTML, like Gecko) Chrome/131.0.0.0 Safari/537.36" version="26.0.7">
  <diagram name="Page-1" id="79VdNH7QeXTe8-QVG2e5">
    <mxGraphModel dx="760" dy="444" grid="1" gridSize="10" guides="1" tooltips="1" connect="1" arrows="1" fold="1" page="1" pageScale="1" pageWidth="850" pageHeight="1100" math="0" shadow="0">
      <root>
        <mxCell id="0" />
        <mxCell id="1" parent="0" />
        <mxCell id="yZVrFldwVhZb4kzZP8xa-20" value="&lt;h1 style=&quot;margin-top: 0px;&quot;&gt;Prompt&lt;/h1&gt;&lt;p&gt;Booking real state through revolut app.&lt;/p&gt;&lt;p&gt;&lt;br&gt;&lt;/p&gt;&lt;p&gt;&lt;br&gt;&lt;/p&gt;&lt;p&gt;Usability:&lt;/p&gt;&lt;p&gt;* Listing available flats/apartments&lt;/p&gt;&lt;p&gt;* Booking an apartment.&lt;/p&gt;&lt;p&gt;&lt;br&gt;&lt;/p&gt;&lt;p&gt;&lt;br&gt;&lt;/p&gt;" style="text;html=1;whiteSpace=wrap;overflow=hidden;rounded=0;" vertex="1" parent="1">
          <mxGeometry x="160" y="30" width="190" height="250" as="geometry" />
        </mxCell>
        <mxCell id="yZVrFldwVhZb4kzZP8xa-34" value="2. Authorize payment&lt;div&gt;{&lt;/div&gt;&lt;div&gt;account_id: ...&lt;/div&gt;&lt;div&gt;amount: ...&lt;/div&gt;&lt;div&gt;&lt;br&gt;&lt;/div&gt;&lt;div&gt;} ==&amp;gt; {payment_auth_id:... }&lt;/div&gt;&lt;div&gt;&lt;br&gt;&lt;div&gt;5. Capture payment&lt;/div&gt;&lt;/div&gt;&lt;div&gt;{&lt;/div&gt;&lt;div&gt;payment_auth_id: &amp;lt;&amp;lt;previously one&amp;gt;&amp;gt;&lt;/div&gt;&lt;div&gt;} ==&amp;gt; { payment_id: ... }&lt;/div&gt;" style="edgeStyle=orthogonalEdgeStyle;rounded=0;orthogonalLoop=1;jettySize=auto;html=1;entryX=0.5;entryY=0;entryDx=0;entryDy=0;" edge="1" parent="1" source="yZVrFldwVhZb4kzZP8xa-21" target="yZVrFldwVhZb4kzZP8xa-33">
          <mxGeometry x="0.0024" relative="1" as="geometry">
            <mxPoint as="offset" />
          </mxGeometry>
        </mxCell>
        <mxCell id="yZVrFldwVhZb4kzZP8xa-52" style="edgeStyle=orthogonalEdgeStyle;rounded=0;orthogonalLoop=1;jettySize=auto;html=1;" edge="1" parent="1" source="yZVrFldwVhZb4kzZP8xa-21" target="yZVrFldwVhZb4kzZP8xa-50">
          <mxGeometry relative="1" as="geometry">
            <Array as="points">
              <mxPoint x="500" y="540" />
              <mxPoint x="430" y="540" />
              <mxPoint x="430" y="660" />
            </Array>
          </mxGeometry>
        </mxCell>
        <mxCell id="yZVrFldwVhZb4kzZP8xa-21" value="BookingService" style="rounded=0;whiteSpace=wrap;html=1;" vertex="1" parent="1">
          <mxGeometry x="440" y="470" width="120" height="60" as="geometry" />
        </mxCell>
        <mxCell id="yZVrFldwVhZb4kzZP8xa-25" style="edgeStyle=orthogonalEdgeStyle;rounded=0;orthogonalLoop=1;jettySize=auto;html=1;exitX=1;exitY=0.5;exitDx=0;exitDy=0;" edge="1" parent="1" source="yZVrFldwVhZb4kzZP8xa-22" target="yZVrFldwVhZb4kzZP8xa-21">
          <mxGeometry relative="1" as="geometry" />
        </mxCell>
        <mxCell id="yZVrFldwVhZb4kzZP8xa-51" style="edgeStyle=orthogonalEdgeStyle;rounded=0;orthogonalLoop=1;jettySize=auto;html=1;" edge="1" parent="1" source="yZVrFldwVhZb4kzZP8xa-22" target="yZVrFldwVhZb4kzZP8xa-50">
          <mxGeometry relative="1" as="geometry">
            <Array as="points">
              <mxPoint x="290" y="660" />
            </Array>
          </mxGeometry>
        </mxCell>
        <mxCell id="yZVrFldwVhZb4kzZP8xa-22" value="RevolutApp" style="rounded=0;whiteSpace=wrap;html=1;" vertex="1" parent="1">
          <mxGeometry x="250" y="485" width="80" height="60" as="geometry" />
        </mxCell>
        <mxCell id="yZVrFldwVhZb4kzZP8xa-26" value="User&lt;div&gt;&lt;br&gt;&lt;/div&gt;" style="shape=umlActor;verticalLabelPosition=bottom;verticalAlign=top;html=1;outlineConnect=0;" vertex="1" parent="1">
          <mxGeometry x="180" y="515" width="30" height="60" as="geometry" />
        </mxCell>
        <mxCell id="yZVrFldwVhZb4kzZP8xa-27" style="edgeStyle=orthogonalEdgeStyle;rounded=0;orthogonalLoop=1;jettySize=auto;html=1;entryX=-0.012;entryY=0.396;entryDx=0;entryDy=0;entryPerimeter=0;" edge="1" parent="1" source="yZVrFldwVhZb4kzZP8xa-26" target="yZVrFldwVhZb4kzZP8xa-22">
          <mxGeometry relative="1" as="geometry" />
        </mxCell>
        <mxCell id="yZVrFldwVhZb4kzZP8xa-41" value="1. POST /booking&lt;div&gt;&lt;br&gt;&lt;/div&gt;&lt;div&gt;{&lt;/div&gt;&lt;div&gt;accomd_id:/...&lt;/div&gt;&lt;div&gt;dates: ...&amp;nbsp;&lt;/div&gt;&lt;div&gt;&lt;br&gt;&lt;/div&gt;&lt;div&gt;}&lt;/div&gt;" style="edgeLabel;html=1;align=center;verticalAlign=middle;resizable=0;points=[];" vertex="1" connectable="0" parent="yZVrFldwVhZb4kzZP8xa-27">
          <mxGeometry x="0.0153" y="2" relative="1" as="geometry">
            <mxPoint x="152" y="33" as="offset" />
          </mxGeometry>
        </mxCell>
        <mxCell id="yZVrFldwVhZb4kzZP8xa-30" value="3rd Party flat provider" style="ellipse;shape=cloud;whiteSpace=wrap;html=1;" vertex="1" parent="1">
          <mxGeometry x="630" y="290" width="170" height="80" as="geometry" />
        </mxCell>
        <mxCell id="yZVrFldwVhZb4kzZP8xa-33" value="Payments Service" style="rounded=0;whiteSpace=wrap;html=1;" vertex="1" parent="1">
          <mxGeometry x="425" y="810" width="120" height="60" as="geometry" />
        </mxCell>
        <mxCell id="yZVrFldwVhZb4kzZP8xa-36" value="3. Book accomodation&lt;div&gt;&lt;br&gt;&lt;/div&gt;&lt;div&gt;{&lt;/div&gt;&lt;div&gt;accomi_id: ...,&lt;/div&gt;&lt;div&gt;customer_email: ...,&lt;/div&gt;&lt;div&gt;range: ...&lt;/div&gt;&lt;div&gt;...&lt;/div&gt;&lt;div&gt;} ==&amp;gt; {&lt;/div&gt;&lt;div&gt;booking_id: ...&lt;/div&gt;&lt;div&gt;accomodation_id:...&lt;/div&gt;&lt;div&gt;&lt;br&gt;&lt;/div&gt;&lt;div&gt;}&lt;/div&gt;" style="edgeStyle=orthogonalEdgeStyle;rounded=0;orthogonalLoop=1;jettySize=auto;html=1;" edge="1" parent="1" source="yZVrFldwVhZb4kzZP8xa-21" target="yZVrFldwVhZb4kzZP8xa-35">
          <mxGeometry x="-0.289" y="20" relative="1" as="geometry">
            <mxPoint x="545" y="515" as="sourcePoint" />
            <mxPoint x="675" y="425" as="targetPoint" />
            <mxPoint as="offset" />
          </mxGeometry>
        </mxCell>
        <mxCell id="yZVrFldwVhZb4kzZP8xa-35" value="Adapter" style="rounded=0;whiteSpace=wrap;html=1;" vertex="1" parent="1">
          <mxGeometry x="720" y="470" width="120" height="60" as="geometry" />
        </mxCell>
        <mxCell id="yZVrFldwVhZb4kzZP8xa-43" style="edgeStyle=orthogonalEdgeStyle;rounded=0;orthogonalLoop=1;jettySize=auto;html=1;entryX=0.61;entryY=0.908;entryDx=0;entryDy=0;entryPerimeter=0;" edge="1" parent="1" source="yZVrFldwVhZb4kzZP8xa-35" target="yZVrFldwVhZb4kzZP8xa-30">
          <mxGeometry relative="1" as="geometry" />
        </mxCell>
        <mxCell id="yZVrFldwVhZb4kzZP8xa-44" value="" style="shape=cylinder3;whiteSpace=wrap;html=1;boundedLbl=1;backgroundOutline=1;size=15;" vertex="1" parent="1">
          <mxGeometry x="710" y="640" width="60" height="80" as="geometry" />
        </mxCell>
        <mxCell id="yZVrFldwVhZb4kzZP8xa-46" style="edgeStyle=orthogonalEdgeStyle;rounded=0;orthogonalLoop=1;jettySize=auto;html=1;exitX=1;exitY=1;exitDx=0;exitDy=0;entryX=0;entryY=0;entryDx=0;entryDy=52.5;entryPerimeter=0;" edge="1" parent="1" source="yZVrFldwVhZb4kzZP8xa-21" target="yZVrFldwVhZb4kzZP8xa-44">
          <mxGeometry relative="1" as="geometry">
            <Array as="points">
              <mxPoint x="580" y="545" />
              <mxPoint x="580" y="630" />
              <mxPoint x="630" y="630" />
              <mxPoint x="630" y="693" />
            </Array>
          </mxGeometry>
        </mxCell>
        <mxCell id="yZVrFldwVhZb4kzZP8xa-47" value="4. store booking in db&lt;div&gt;{&lt;/div&gt;&lt;div&gt;booking_id: ...,&lt;/div&gt;&lt;div&gt;account_id: ...,&lt;/div&gt;&lt;div&gt;}&lt;/div&gt;" style="edgeLabel;html=1;align=center;verticalAlign=middle;resizable=0;points=[];" vertex="1" connectable="0" parent="yZVrFldwVhZb4kzZP8xa-46">
          <mxGeometry x="0.0244" y="1" relative="1" as="geometry">
            <mxPoint y="11" as="offset" />
          </mxGeometry>
        </mxCell>
        <mxCell id="yZVrFldwVhZb4kzZP8xa-50" value="AuthenticationService" style="rounded=0;whiteSpace=wrap;html=1;" vertex="1" parent="1">
          <mxGeometry x="270" y="630" width="120" height="60" as="geometry" />
        </mxCell>
        <mxCell id="yZVrFldwVhZb4kzZP8xa-53" style="edgeStyle=orthogonalEdgeStyle;rounded=0;orthogonalLoop=1;jettySize=auto;html=1;entryX=0.5;entryY=0;entryDx=0;entryDy=0;entryPerimeter=0;" edge="1" parent="1" source="yZVrFldwVhZb4kzZP8xa-35" target="yZVrFldwVhZb4kzZP8xa-44">
          <mxGeometry relative="1" as="geometry" />
        </mxCell>
        <mxCell id="yZVrFldwVhZb4kzZP8xa-54" value="GET /search?lat=&amp;amp;lng=&amp;amp;range" style="text;html=1;align=center;verticalAlign=middle;whiteSpace=wrap;rounded=0;" vertex="1" parent="1">
          <mxGeometry x="230" y="410" width="220" height="30" as="geometry" />
        </mxCell>
        <mxCell id="yZVrFldwVhZb4kzZP8xa-55" value="{&lt;div&gt;accomodation_id: ...&lt;/div&gt;&lt;div&gt;lat: ...&lt;/div&gt;&lt;div&gt;lng: ...,&lt;/div&gt;&lt;div&gt;max_guests: ...&lt;/div&gt;&lt;div&gt;pricing: { ... },&lt;/div&gt;&lt;div&gt;&lt;br&gt;&lt;/div&gt;&lt;div&gt;}&lt;/div&gt;" style="text;html=1;align=left;verticalAlign=middle;whiteSpace=wrap;rounded=0;" vertex="1" parent="1">
          <mxGeometry x="630" y="740" width="200" height="160" as="geometry" />
        </mxCell>
      </root>
    </mxGraphModel>
  </diagram>
</mxfile>
